<svg xmlns="http://www.w3.org/2000/svg" fill="none" viewBox="0 0 60 60">
  <path fill="#286053" fill-rule="evenodd" d="M30 60c16.569 0 30-13.431 30-30C60 13.431 46.569 0 30 0 13.431 0 0 13.431 0 30c0 16.569 13.431 30 30 30z" clip-rule="evenodd"/>
  <path fill="#3ED598" fill-rule="evenodd" d="M30 54c13.255 0 24-10.745 24-24S43.255 6 30 6 6 16.745 6 30s10.745 24 24 24z" clip-rule="evenodd"/>
  <path fill="#fff" d="M21 30a1 1 0 011-1h7v-7a1 1 0 112 0v7h7a1 1 0 110 2h-7v7a1 1 0 11-2 0v-7h-7a1 1 0 01-1-1z"/>
</svg>
