<svg xmlns="http://www.w3.org/2000/svg" fill="none" viewBox="0 0 24 24">
  <path style="fill: var(--icon-color, black)" d="M24 20.14v-6.96c0-2.28 0-3.41-.47-4.42-.47-1-1.35-1.76-3.11-3.28l-1.33-1.14C15.7 1.44 14.03 0 12 0 9.97 0 8.29 1.45 4.91 4.34L3.58 5.48C1.82 7 .94 7.75.47 8.76 0 9.76 0 10.9 0 13.18v6.96c0 1.2 0 1.8.2 2.27.27.63.8 1.13 1.45 1.4.49.19 1.1.19 2.35.19h.44c.83 0 1.24 0 1.58-.09a2.62 2.62 0 001.89-1.82c.09-.33.09-.72.09-1.52v-3c0-2.14 1.8-3.87 4-3.87s4 1.73 4 3.87v3c0 .8 0 1.2.1 1.52.24.89.96 1.58 1.88 1.82.34.09.75.09 1.58.09H20c1.24 0 1.86 0 2.35-.2a2.62 2.62 0 001.45-1.39c.2-.47.2-1.07.2-2.27z"/>
</svg>
