<svg xmlns="http://www.w3.org/2000/svg" fill="none" viewBox="0 0 24 24">
  <path style="fill: var(--icon-color, black)" fill-rule="evenodd" d="M1.56 1.6C0 3.2 0 5.77 0 10.92v10.43c0 1.07 0 1.6.14 1.89.3.61.99.9 1.62.69.3-.1.66-.48 1.4-1.24.6-.61.9-.92 1.23-1.16.7-.52 1.5-.86 2.34-1 .4-.06.83-.06 1.67-.06H14c4.38 0 6.57 0 8.05-1.24.27-.23.52-.48.74-.75C24 16.97 24 14.72 24 10.24c0-4.5 0-6.73-1.21-8.24a5.4 5.4 0 00-.74-.76C20.57 0 18.38 0 14 0h-3.33c-5.03 0-7.55 0-9.1 1.6zM6 12.28c1.1 0 2-.91 2-2.04 0-1.14-.9-2.05-2-2.05s-2 .91-2 2.05c0 1.13.9 2.04 2 2.04zm8-2.04c0 1.13-.9 2.04-2 2.04s-2-.91-2-2.04c0-1.14.9-2.05 2-2.05s2 .91 2 2.05zm4 2.04c1.1 0 2-.91 2-2.04 0-1.14-.9-2.05-2-2.05s-2 .91-2 2.05c0 1.13.9 2.04 2 2.04z" clip-rule="evenodd"/>
</svg>
